<?xml version="1.0" ?><svg style="enable-background:new 0 0 16 16;" version="1.1" viewBox="0 0 16 16" xml:space="preserve" xmlns="http://www.w3.org/2000/svg" xmlns:xlink="http://www.w3.org/1999/xlink"><g id="Guide"/><g id="Layer_2"><g><path d="M8,2C4.69,2,2,4.69,2,8s2.69,6,6,6s6-2.69,6-6S11.31,2,8,2z M8,13c-2.76,0-5-2.24-5-5s2.24-5,5-5s5,2.24,5,5    S10.76,13,8,13z"/><path d="M8.43,4.55C7.47,4.31,6.4,4.92,6.11,5.86C6.02,6.13,6.17,6.41,6.43,6.49s0.54-0.06,0.63-0.33C7.2,5.72,7.74,5.41,8.2,5.52    C8.65,5.63,8.99,6.16,8.9,6.62C8.82,7.08,8.33,7.45,7.86,7.39C7.72,7.37,7.57,7.42,7.47,7.51C7.36,7.61,7.3,7.74,7.3,7.89    L7.29,9.45c0,0.28,0.22,0.5,0.5,0.5c0,0,0,0,0,0c0.28,0,0.5-0.22,0.5-0.5L8.3,8.36c0.77-0.15,1.45-0.78,1.59-1.57    C10.07,5.82,9.4,4.79,8.43,4.55z"/><path d="M7.81,10.39c0,0-0.01,0-0.01,0c-0.27,0-0.49,0.23-0.5,0.5c0,0.01,0,0.1,0,0.11c0,0.27,0.22,0.45,0.49,0.46    c0,0,0.01,0,0.01,0c0.27,0,0.49-0.25,0.5-0.52c0-0.01,0-0.07,0-0.08C8.29,10.59,8.08,10.39,7.81,10.39z"/></g></g></svg>